<?xml version="1.0" encoding="utf-8"?>
<?xml-stylesheet type="text/xsl" href="rss1.xsl"?>
<rss version="2.0" xmlns:atom="http://www.w3.org/2005/Atom" xmlns:content="http://purl.org/rss/1.0/modules/content/" xmlns:dc="http://purl.org/dc/elements/1.1/" xmlns:media="http://search.yahoo.com/mrss/">
<channel>
 <title>Getty</title>
 <link>http://www.gettyimg.com/</link>
 <atom:link href="http://www.gettyimg.com/" rel="self" type="application/rss+xml" />

 
                <item>
                <title><![CDATA[【Albums (lossy)】Dolby Atmos - Ariana Grande - eternal sunshine (slightly deluxe) | Dolby Atmos | 5.1 | 16bit | E-AC3-JOC 48kHz 768kbps]]></title>
                <link><![CDATA[https://sharemania.us/threads/ariana-grande-eternal-sunshine-slightly-deluxe-dolby-atmos-5-1-16bit-e-ac3-joc-48khz-768kbps.239748/]]></link>
                <description><![CDATA[<article>
<blockquote class="messageText SelectQuoteContainer ugc baseHtml">
<img src="https://i.imgur.com/0T8cKAJ_d.webp?maxwidth=760&amp;fidelity=grand" class="bbCodeImage LbImage" alt="[​IMG]" data-url="https://i.imgur.com/0T8cKAJ_d.webp?maxwidth=760&amp;fidelity=grand" style=""><br>
<br>
<b><i>Tracklist:</i></b><br>
<ol>
<li><b>intro (end of the world)</b></li>
<li><b>bye</b></li>
<li><b>don't wanna break up again</b></li>
<li><b>Saturn Returns Interlude</b></li>
<li><b>eternal sunshine</b></li>
<li><b>supernatural</b></li>
<li><b>true story</b></li>
<li><b>the boy is mine</b></li>
<li><b>yes, and?</b></li>
<li><b>we can't be friends (wait for your love)</b></li>
<li><b>i wish i hated you</b></li>
<li><b>imperfect you</b></li>
<li><b>ordinary things (feat. Noona)</b></li>
<li><b>supernatural (with Troye Sivan)</b></li>
<li><b>imperfect for you - acoustic</b></li>
<li><b>true story - a cappella</b></li>
<li><b>yes, and? (with Mariah Carey)</b></li>
</ol>
<div class="bbCodeBlock bbCodeVfcHH HiddenContent">
<div class="attribution type">Hidden Content:</div>
<blockquote>You must reply before you can see the hidden data contained here.</blockquote>
</div>
<div class="messageTextEndMarker">&nbsp;</div>
</blockquote>
</article>]]></description>
                <author><![CDATA[Kauan0606]]></author>
                </item>

                
                <item>
                <title><![CDATA[【Apple Music】WEB-RiP - Imagine Dragons - Thunder (Live In Vegas) 1632p AM WEB-DL AAC2.0 H.265-SZYMIX]]></title>
                <link><![CDATA[https://sharemania.us/threads/imagine-dragons-thunder-live-in-vegas-1632p-am-web-dl-aac2-0-h-265-szymix.239745/]]></link>
                <description><![CDATA[<article>
<blockquote class="messageText SelectQuoteContainer ugc baseHtml">
<img src="https://m.media-amazon.com/images/M/MV5BZGIzYWI1OTAtNTkyZC00YmExLTk4NjQtNDkyMmIyMTE3ZDhkXkEyXkFqcGdeQXVyMzUwNDIxMjQ@._V1_.jpg" class="bbCodeImage LbImage" alt="[​IMG]" data-url="https://m.media-amazon.com/images/M/MV5BZGIzYWI1OTAtNTkyZC00YmExLTk4NjQtNDkyMmIyMTE3ZDhkXkEyXkFqcGdeQXVyMzUwNDIxMjQ@._V1_.jpg" style=""> <br>
<img src="https://i.postimg.cc/Y2fg1fX7/Imagine-Dragons-Thunder-Live-In-Vegas-1632p-AM-WEB-DL-AAC2-0-H-265-SZYMIX-mkv.jpg" class="bbCodeImage LbImage" alt="[​IMG]" data-url="https://i.postimg.cc/Y2fg1fX7/Imagine-Dragons-Thunder-Live-In-Vegas-1632p-AM-WEB-DL-AAC2-0-H-265-SZYMIX-mkv.jpg" style=""> <br>
<div class="ToggleTriggerAnchor bbCodeSpoilerContainer">
<button type="button" class="button bbCodeSpoilerButton ToggleTrigger Tooltip JsOnly" data-target="> .SpoilerTarget"><span>Spoiler: <span class="SpoilerTitle">Media Info</span></span></button>
<div class="SpoilerTarget bbCodeSpoilerText">General<br>
Complete name : Imagine Dragons - Thunder (Live In Vegas) 1632p AM WEB-DL AAC2.0 H.265-SZYMIX.mkv<br>
Format : MPEG-4<br>
Format profile : Base Media<br>
Codec ID : isom (isom/iso4)<br>
File size : 669 MiB<br>
Duration : 4 min 32 s<br>
Overall bit rate mode : Variable<br>
Overall bit rate : 20.6 Mb/s<br>
Frame rate : 23.976 FPS<br>
Movie name : Thunder (Live In Vegas)<br>
Performer : Imagine Dragons<br>
Genre : Alternative<br>
ContentType : Music Video<br>
Encoded date : 2024-03-11 22:58:01 UTC<br>
Tagged date : 2024-03-11 22:58:01 UTC<br>
Copyright : ℗ 2023 KIDinaKORNER/Interscope Records<br>
Cover : Yes<br>
Rating : None<br>
GenreID : 1620<br>
AppleStoreCountry : Japan<br>
AlbumTitleID : 358714030<br>
AppleStoreCatalogID : 1700608716<br>
FileExtension_Invalid : braw mov mp4 m4v m4a m4b m4p m4r 3ga 3gpa 3gpp 3gp 3gpp2 3g2 k3g jpm jpx mqv ismv isma ismt f4a f4b f4v<br>
<br>
Video<br>
ID : 2<br>
Format : HEVC<br>
Format/Info : High Efficiency Video Coding<br>
Format profile : Main 10@L5@High<br>
Codec ID : hvc1<br>
Codec ID/Info : High Efficiency Video Coding<br>
Duration : 4 min 32 s<br>
Bit rate : 20.3 Mb/s<br>
Maximum bit rate : 38.5 Mb/s<br>
Width : 3 840 pixels<br>
Height : 1 632 pixels<br>
Display aspect ratio : 2.35:1<br>
Frame rate mode : Constant<br>
Frame rate : 23.976 (24000/1001) FPS<br>
Color space : YUV<br>
Chroma subsampling : 4:2:0<br>
Bit depth : 10 bits<br>
Scan type : Progressive<br>
Bits/(Pixel*Frame) : 0.135<br>
Stream size : 659 MiB (99%)<br>
Title : Core Media Video<br>
Encoded date : 2024-02-15 03:05:46 UTC<br>
Tagged date : 2024-03-11 22:58:02 UTC<br>
Color range : Limited<br>
Color primaries : BT.709<br>
Transfer characteristics : BT.709<br>
Matrix coefficients : BT.709<br>
Codec configuration box : hvcC<br>
<br>
Audio<br>
ID : 1<br>
Format : AAC LC<br>
Format/Info : Advanced Audio Codec Low Complexity<br>
Codec ID : 2 / 40 / mp4a-40-2<br>
Duration : 4 min 32 s<br>
Duration_LastFrame : -4 ms<br>
Bit rate mode : Variable<br>
Bit rate : 275 kb/s<br>
Maximum bit rate : 321 kb/s<br>
Channel(s) : 2 channels<br>
Channel layout : L R<br>
Sampling rate : 48.0 kHz<br>
Frame rate : 46.875 FPS (1024 SPF)<br>
Compression mode : Lossy<br>
Stream size : 8.95 MiB (1%)<br>
Title : Core Media Audio<br>
Encoded date : 2024-02-15 03:04:57 UTC<br>
Tagged date : 2024-03-11 22:58:02 UTC</div>
</div>Ripped by me <img src="styles/default/xenforo/smilies/big_smile-48.png" class="mceSmilie" alt=":)" title="Smile    :)"><br>
<div class="bbCodeBlock bbCodeVfcHH HiddenContent">
<div class="attribution type">Hidden Content:</div>
<blockquote>You must either reply or click 'Like' to see the hidden information contained here.</blockquote>
</div>
<div class="messageTextEndMarker">&nbsp;</div>
</blockquote>
</article>]]></description>
                <author><![CDATA[szymek04sawicki]]></author>
                </item>

                
                <item>
                <title><![CDATA[【HD Live Performances】WEB-RiP - The Smile - Live at BBC Radio 6 [720p50] 2024 (Full Broadcast)]]></title>
                <link><![CDATA[https://sharemania.us/threads/the-smile-live-at-bbc-radio-6-720p50-2024-full-broadcast.239747/]]></link>
                <description><![CDATA[<article>
<blockquote class="messageText SelectQuoteContainer ugc baseHtml">
The Smile<br>
BBC Music Fest<br>
O2 Victoria Warehouse<br>
Manchester UK<br>
March 9, 2024<br>
<br>
Thom Yorke<br>
Jonny Greenwood<br>
Tom Skinner<br>
London Contemporary Orchestra<br>
<br>
01. Wall of Eyes<br>
02. Pana-vision<br>
03. Speech Bubbles<br>
04. Friend of a Friend<br>
05. Skrting on the Surface<br>
06. Tiptoe<br>
07. You Know Me!<br>
08. I Quit<br>
09. Waving a White Flag<br>
10. Free in the Knowledge<br>
11. Instant Psalm<br>
12. Bending Hectic<br>
<br>
Encore<br>
13. Thin Thing<br>
14. Read the Room<br>
15. A Hairdryer<br>
16. The Same<br>
17. The Smoke<br>
18. The Opposite<br>
19. You Will Never Work In Television Again<br>
<br>
<img src="https://i.imgur.com/gUhPwSh.png" class="bbCodeImage LbImage" alt="[​IMG]" data-url="https://i.imgur.com/gUhPwSh.png" style=""><br>
<img src="https://i.imgur.com/JbFJbUV.png" class="bbCodeImage LbImage" alt="[​IMG]" data-url="https://i.imgur.com/JbFJbUV.png" style=""><br>
<img src="https://i.imgur.com/M4ijJud.png" class="bbCodeImage LbImage" alt="[​IMG]" data-url="https://i.imgur.com/M4ijJud.png" style=""><br>
<img src="https://i.imgur.com/lL56wwW.png" class="bbCodeImage LbImage" alt="[​IMG]" data-url="https://i.imgur.com/lL56wwW.png" style=""><br>
<img src="https://i.imgur.com/irK2NRD.png" class="bbCodeImage LbImage" alt="[​IMG]" data-url="https://i.imgur.com/irK2NRD.png" style=""><br>
<br>
<div class="bbCodeBlock bbCodeVfcHH HiddenContent">
<div class="attribution type">Hidden Content:</div>
<blockquote>You must either reply or click 'Like' to see the hidden information contained here.</blockquote>
</div>
<div class="bbCodeBlock bbCodeVfcHH HiddenContent">
<div class="attribution type">Hidden Content:</div>
<blockquote>You must reply before you can see the hidden data contained here.</blockquote>
</div>
<div class="messageTextEndMarker">&nbsp;</div>
</blockquote>
</article>]]></description>
                <author><![CDATA[Nero]]></author>
                </item>

                
                <item>
                <title><![CDATA[【Apple Music】WEB-RiP - Imagine Dragons - Whatever It Takes (Live In Vegas) 1632p AM WEB-DL AAC2.0 H.265-SZYMIX]]></title>
                <link><![CDATA[https://sharemania.us/threads/imagine-dragons-whatever-it-takes-live-in-vegas-1632p-am-web-dl-aac2-0-h-265-szymix.239746/]]></link>
                <description><![CDATA[<article>
<blockquote class="messageText SelectQuoteContainer ugc baseHtml">
<img src="https://m.media-amazon.com/images/M/MV5BZGIzYWI1OTAtNTkyZC00YmExLTk4NjQtNDkyMmIyMTE3ZDhkXkEyXkFqcGdeQXVyMzUwNDIxMjQ@._V1_.jpg" class="bbCodeImage LbImage" alt="[​IMG]" data-url="https://m.media-amazon.com/images/M/MV5BZGIzYWI1OTAtNTkyZC00YmExLTk4NjQtNDkyMmIyMTE3ZDhkXkEyXkFqcGdeQXVyMzUwNDIxMjQ@._V1_.jpg" style=""> <br>
<img src="https://i.postimg.cc/3xbb3Hpt/Imagine-Dragons-Whatever-It-Takes-Live-In-Vegas-1632p-AM-WEB-DL-AAC2-0-H-265-SZYMIX-mkv.jpg" class="bbCodeImage LbImage" alt="[​IMG]" data-url="https://i.postimg.cc/3xbb3Hpt/Imagine-Dragons-Whatever-It-Takes-Live-In-Vegas-1632p-AM-WEB-DL-AAC2-0-H-265-SZYMIX-mkv.jpg" style=""> <br>
<div class="ToggleTriggerAnchor bbCodeSpoilerContainer">
<button type="button" class="button bbCodeSpoilerButton ToggleTrigger Tooltip JsOnly" data-target="> .SpoilerTarget"><span>Spoiler: <span class="SpoilerTitle">Media Info</span></span></button>
<div class="SpoilerTarget bbCodeSpoilerText">General<br>
Complete name : Imagine Dragons - Whatever It Takes (Live In Vegas) 1632p AM WEB-DL AAC2.0 H.265-SZYMIX.mkv<br>
Format : MPEG-4<br>
Format profile : Base Media<br>
Codec ID : isom (isom/iso4)<br>
File size : 640 MiB<br>
Duration : 4 min 31 s<br>
Overall bit rate mode : Variable<br>
Overall bit rate : 19.8 Mb/s<br>
Frame rate : 23.976 FPS<br>
Movie name : Whatever It Takes (Live in Vegas)<br>
Performer : Imagine Dragons<br>
Genre : Alternative<br>
ContentType : Music Video<br>
Encoded date : 2024-03-11 22:50:15 UTC<br>
Tagged date : 2024-03-11 22:50:15 UTC<br>
Copyright : ℗ 2023 KIDinaKORNER/Interscope Records<br>
Cover : Yes<br>
Rating : None<br>
GenreID : 1620<br>
AppleStoreCountry : Japan<br>
AlbumTitleID : 358714030<br>
AppleStoreCatalogID : 1702264257<br>
FileExtension_Invalid : braw mov mp4 m4v m4a m4b m4p m4r 3ga 3gpa 3gpp 3gp 3gpp2 3g2 k3g jpm jpx mqv ismv isma ismt f4a f4b f4v<br>
<br>
Video<br>
ID : 2<br>
Format : HEVC<br>
Format/Info : High Efficiency Video Coding<br>
Format profile : Main 10@L5@High<br>
Codec ID : hvc1<br>
Codec ID/Info : High Efficiency Video Coding<br>
Duration : 4 min 31 s<br>
Bit rate : 19.5 Mb/s<br>
Maximum bit rate : 37.9 Mb/s<br>
Width : 3 840 pixels<br>
Height : 1 632 pixels<br>
Display aspect ratio : 2.35:1<br>
Frame rate mode : Constant<br>
Frame rate : 23.976 (24000/1001) FPS<br>
Color space : YUV<br>
Chroma subsampling : 4:2:0<br>
Bit depth : 10 bits<br>
Scan type : Progressive<br>
Bits/(Pixel*Frame) : 0.130<br>
Stream size : 630 MiB (98%)<br>
Title : Core Media Video<br>
Encoded date : 2024-02-16 06:48:14 UTC<br>
Tagged date : 2024-03-11 22:50:17 UTC<br>
Color range : Limited<br>
Color primaries : BT.709<br>
Transfer characteristics : BT.709<br>
Matrix coefficients : BT.709<br>
Codec configuration box : hvcC<br>
<br>
Audio<br>
ID : 1<br>
Format : AAC LC<br>
Format/Info : Advanced Audio Codec Low Complexity<br>
Codec ID : 2 / 40 / mp4a-40-2<br>
Duration : 4 min 31 s<br>
Duration_LastFrame : -15 ms<br>
Bit rate mode : Variable<br>
Bit rate : 278 kb/s<br>
Maximum bit rate : 309 kb/s<br>
Channel(s) : 2 channels<br>
Channel layout : L R<br>
Sampling rate : 48.0 kHz<br>
Frame rate : 46.875 FPS (1024 SPF)<br>
Compression mode : Lossy<br>
Stream size : 9.00 MiB (1%)<br>
Title : Core Media Audio<br>
Encoded date : 2024-02-16 06:48:04 UTC<br>
Tagged date : 2024-03-11 22:50:17 UTC</div>
</div>Ripped by me <img src="styles/default/xenforo/smilies/big_smile-48.png" class="mceSmilie" alt=":)" title="Smile    :)"><br>
<div class="bbCodeBlock bbCodeVfcHH HiddenContent">
<div class="attribution type">Hidden Content:</div>
<blockquote>You must either reply or click 'Like' to see the hidden information contained here.</blockquote>
</div>
<div class="messageTextEndMarker">&nbsp;</div>
</blockquote>
</article>]]></description>
                <author><![CDATA[szymek04sawicki]]></author>
                </item>

                </channel></rss>